<svg width="111" height="112" viewBox="0 0 111 112" fill="none" xmlns="http://www.w3.org/2000/svg">
<path d="M11.8956 38.861L4.35909 34.4603L5.84606 31.9137C6.1913 31.3225 6.58023 30.9015 7.01284 30.6508C7.44444 30.3962 7.89355 30.2834 8.36019 30.3125C8.82683 30.3415 9.28218 30.4857 9.72622 30.7449C10.1703 31.0042 10.5208 31.3307 10.7779 31.7242C11.0364 32.1153 11.164 32.5616 11.1607 33.063C11.155 33.563 10.9809 34.1061 10.6386 34.6925L9.57275 36.5177L8.76317 36.045L9.81178 34.2492C10.0482 33.8444 10.168 33.4785 10.1715 33.1515C10.1749 32.8245 10.0898 32.5364 9.91633 32.287C9.74181 32.0338 9.50367 31.8191 9.20191 31.6428C8.90016 31.4666 8.59735 31.3655 8.29348 31.3394C7.99105 31.3108 7.70003 31.381 7.42041 31.55C7.13834 31.7176 6.87769 32.0062 6.63845 32.4159L5.70157 34.0204L12.4285 37.9484L11.8956 38.861Z" fill="#FFFBFB"/>
<path d="M21.2099 20.1689C21.8469 20.8333 22.2775 21.5225 22.5015 22.2365C22.7256 22.9505 22.7543 23.6392 22.5876 24.3028C22.4209 24.9664 22.0689 25.5557 21.5317 26.0708C20.9944 26.5859 20.3907 26.9128 19.7207 27.0514C19.0507 27.19 18.3638 27.1323 17.6599 26.8784C16.9559 26.6245 16.2855 26.1653 15.6485 25.5009C15.0114 24.8364 14.5809 24.1472 14.3568 23.4332C14.1328 22.7192 14.1041 22.0305 14.2708 21.3669C14.4374 20.7033 14.7894 20.114 15.3267 19.5989C15.864 19.0838 16.4676 18.7569 17.1376 18.6183C17.8076 18.4797 18.4946 18.5374 19.1985 18.7913C19.9024 19.0453 20.5729 19.5044 21.2099 20.1689ZM20.4717 20.8766C19.9487 20.3312 19.416 19.9583 18.8737 19.758C18.3335 19.5557 17.8161 19.5066 17.3217 19.6108C16.8293 19.7129 16.3923 19.9468 16.0109 20.3125C15.6295 20.6782 15.3763 21.1059 15.2515 21.5955C15.1287 22.0832 15.156 22.6022 15.3332 23.1524C15.5126 23.7007 15.8637 24.2476 16.3867 24.7931C16.9097 25.3385 17.4413 25.7124 17.9815 25.9147C18.5238 26.115 19.0412 26.164 19.5336 26.0619C20.0281 25.9578 20.466 25.7229 20.8475 25.3572C21.2289 24.9915 21.481 24.5648 21.6038 24.0771C21.7286 23.5875 21.7014 23.0685 21.522 22.5202C21.3448 21.97 20.9946 21.4221 20.4717 20.8766Z" fill="#FFFBFB"/>
<path d="M30.136 19.1357L26.0565 11.4206L28.6633 10.0422C29.2661 9.72345 29.8153 9.5648 30.3109 9.56624C30.8053 9.56515 31.2396 9.69379 31.614 9.95214C31.9885 10.2105 32.2959 10.567 32.5362 11.0215C32.7766 11.4761 32.8968 11.9283 32.8969 12.3782C32.8969 12.8281 32.758 13.255 32.4799 13.6591C32.2006 14.0607 31.7621 14.4195 31.1644 14.7356L29.0548 15.8511L28.6086 15.0072L30.688 13.9077C31.0999 13.6899 31.3995 13.4543 31.5869 13.201C31.7768 12.9463 31.8699 12.6786 31.866 12.3978C31.8634 12.1132 31.7804 11.8165 31.617 11.5076C31.4537 11.1987 31.2532 10.9592 31.0155 10.7893C30.7778 10.6193 30.4989 10.5386 30.1788 10.5471C29.8575 10.5532 29.4883 10.6664 29.0714 10.8869L27.429 11.7554L31.0702 18.6417L30.136 19.1357ZM31.9349 13.7497L35.6661 16.2115L34.5812 16.7852L30.8801 14.3074L31.9349 13.7497Z" fill="#FFFBFB"/>
<path d="M39.4263 6.54677L39.2142 5.6336L45.5898 4.15216L45.8019 5.06533L43.1288 5.68646L44.8919 13.2741L43.8625 13.5133L42.0995 5.92565L39.4263 6.54677Z" fill="#FFFBFB"/>
<path d="M54.0952 12.0261L54.3551 3.30274L59.5857 3.45855L59.5578 4.39564L55.3835 4.27129L55.2957 7.21885L59.0781 7.33152L59.0502 8.26861L55.2678 8.15593L55.1515 12.0576L54.0952 12.0261Z" fill="#FFFBFB"/>
<path d="M74.9657 11.2651C74.6869 12.1423 74.2875 12.85 73.7677 13.3883C73.2478 13.9266 72.6567 14.2812 71.9942 14.4523C71.3318 14.6233 70.6459 14.5961 69.9365 14.3706C69.2272 14.1452 68.6514 13.7714 68.2092 13.2493C67.767 12.7272 67.4891 12.0964 67.3754 11.3567C67.2617 10.6171 67.3442 9.80866 67.623 8.93145C67.9018 8.05423 68.3011 7.34648 68.821 6.80819C69.3408 6.26991 69.932 5.91526 70.5944 5.74424C71.2569 5.57322 71.9428 5.60043 72.6522 5.82588C73.3615 6.05132 73.9373 6.42509 74.3795 6.94718C74.8217 7.46927 75.0996 8.10014 75.2133 8.83977C75.327 9.57941 75.2444 10.3878 74.9657 11.2651ZM73.991 10.9553C74.2199 10.2351 74.2925 9.58898 74.2091 9.01693C74.1283 8.44575 73.9239 7.96794 73.596 7.5835C73.2707 7.19993 72.8563 6.92812 72.3527 6.76807C71.8491 6.60802 71.3525 6.59029 70.8628 6.71485C70.3758 6.84029 69.933 7.11244 69.5346 7.53133C69.1389 7.95107 68.8266 8.52103 68.5977 9.24122C68.3688 9.9614 68.2948 10.6071 68.3756 11.1783C68.4591 11.7503 68.6634 12.2281 68.9887 12.6117C69.3166 12.9961 69.7324 13.2684 70.236 13.4284C70.7395 13.5885 71.2348 13.6058 71.7218 13.4804C72.2116 13.3558 72.6543 13.0836 73.05 12.6639C73.4484 12.245 73.7621 11.6755 73.991 10.9553Z" fill="#FFFBFB"/>
<path d="M80.1402 18.6402L84.8918 11.3198L85.7782 11.8952L81.5371 18.4292L84.9399 20.6379L84.4295 21.4243L80.1402 18.6402Z" fill="#FFFBFB"/>
<path d="M96.3409 20.2659L90.1773 26.4445L89.4291 25.6981L95.5927 19.5195L96.3409 20.2659Z" fill="#FFFBFB"/>
<path d="M102.794 36.1307C102.008 36.6105 101.243 36.8833 100.497 36.9492C99.7518 37.0151 99.0729 36.8955 98.4605 36.5905C97.848 36.2855 97.3478 35.8154 96.9598 35.1802C96.5718 34.545 96.3819 33.8853 96.3901 33.2012C96.3983 32.5171 96.6018 31.8584 97.0007 31.2253C97.3996 30.5921 97.9918 30.0356 98.7773 29.5558C99.5628 29.076 100.328 28.8031 101.074 28.7373C101.819 28.6714 102.498 28.791 103.11 29.096C103.723 29.401 104.223 29.8711 104.611 30.5063C104.999 31.1415 105.189 31.8011 105.181 32.4853C105.173 33.1694 104.969 33.828 104.57 34.4612C104.171 35.0943 103.579 35.6508 102.794 36.1307ZM102.26 35.2579C102.905 34.864 103.384 34.4236 103.696 33.9368C104.009 33.4525 104.168 32.9576 104.172 32.4524C104.178 31.9495 104.043 31.4726 103.767 31.0217C103.492 30.5707 103.128 30.2318 102.677 30.005C102.227 29.7805 101.714 29.6959 101.139 29.7512C100.565 29.8088 99.9553 30.0346 99.3104 30.4286C98.6655 30.8225 98.1864 31.2617 97.8731 31.746C97.5612 32.2328 97.4024 32.7276 97.3967 33.2305C97.3924 33.7358 97.528 34.2139 97.8035 34.6648C98.0789 35.1157 98.4417 35.4534 98.8917 35.6779C99.3432 35.9047 99.856 35.9893 100.43 35.9317C101.005 35.8764 101.616 35.6518 102.26 35.2579Z" fill="#FFFBFB"/>
<path d="M99.0168 72.5126L106.495 77.0118L104.975 79.5386C104.622 80.1253 104.227 80.5411 103.791 80.7862C103.357 81.0351 102.906 81.142 102.44 81.1068C101.974 81.0717 101.52 80.9215 101.08 80.6564C100.639 80.3914 100.293 80.0604 100.041 79.6635C99.7874 79.269 99.6657 78.8211 99.6756 78.3198C99.6879 77.8199 99.869 77.2791 100.219 76.6973L101.309 74.8862L102.112 75.3695L101.04 77.1514C100.798 77.5531 100.674 77.9173 100.666 78.2442C100.658 78.5712 100.739 78.8604 100.91 79.112C101.081 79.3675 101.316 79.5854 101.616 79.7655C101.915 79.9456 102.216 80.0508 102.52 80.0808C102.822 80.1134 103.114 80.047 103.396 79.8817C103.68 79.7178 103.944 79.4326 104.189 79.0261L105.147 77.4341L98.472 73.4182L99.0168 72.5126Z" fill="#FFFBFB"/>
<path d="M89.4582 91.0811C88.83 90.4084 88.4085 89.7136 88.1938 88.9968C87.9791 88.2799 87.9595 87.5908 88.1348 86.9295C88.3102 86.2681 88.6699 85.6835 89.2139 85.1754C89.7578 84.6674 90.3657 84.3485 91.0375 84.2187C91.7092 84.0889 92.3954 84.1556 93.0959 84.4187C93.7964 84.6819 94.4608 85.1498 95.0891 85.8225C95.7173 86.4952 96.1388 87.19 96.3535 87.9069C96.5682 88.6237 96.5878 89.3128 96.4125 89.9742C96.2371 90.6355 95.8774 91.2202 95.3334 91.7282C94.7894 92.2362 94.1816 92.5551 93.5098 92.6849C92.8381 92.8147 92.1519 92.7481 91.4514 92.4849C90.7508 92.2218 90.0864 91.7539 89.4582 91.0811ZM90.2057 90.3831C90.7214 90.9354 91.2492 91.3152 91.7888 91.5226C92.3263 91.7319 92.843 91.7878 93.3388 91.6902C93.8325 91.5945 94.2725 91.3663 94.6586 91.0056C95.0448 90.645 95.3036 90.2207 95.4348 89.7327C95.564 89.2467 95.5435 88.7274 95.3735 88.1749C95.2014 87.6243 94.8574 87.0728 94.3416 86.5206C93.8258 85.9683 93.2992 85.5875 92.7616 85.3781C92.222 85.1707 91.7053 85.1149 91.2116 85.2106C90.7158 85.3082 90.2748 85.5373 89.8886 85.898C89.5025 86.2587 89.2448 86.682 89.1156 87.168C88.9843 87.656 89.0048 88.1753 89.1769 88.7259C89.347 89.2784 89.6899 89.8308 90.2057 90.3831Z" fill="#FFFBFB"/>
<path d="M80.5193 91.9972L84.4974 99.7651L81.8727 101.109C81.2658 101.42 80.7146 101.571 80.219 101.564C79.7247 101.558 79.292 101.424 78.921 101.161C78.55 100.897 78.2473 100.537 78.0129 100.079C77.7786 99.6215 77.6643 99.1677 77.6701 98.7179C77.6759 98.2681 77.8205 97.8429 78.1038 97.4425C78.3884 97.0446 78.8316 96.6916 79.4334 96.3834L81.5574 95.2957L81.9925 96.1453L79.8988 97.2175C79.4841 97.4299 79.1814 97.6615 78.9907 97.9123C78.7975 98.1645 78.7009 98.431 78.7011 98.7118C78.7 98.9964 78.7791 99.2942 78.9384 99.6052C79.0977 99.9162 79.2951 100.158 79.5305 100.331C79.766 100.504 80.0438 100.589 80.3639 100.584C80.6853 100.583 81.0559 100.474 81.4757 100.259L83.1294 99.4124L79.5787 92.4789L80.5193 91.9972ZM78.65 97.3591L74.9513 94.8486L76.0437 94.2892L79.712 96.8153L78.65 97.3591Z" fill="#FFFBFB"/>
<path d="M71.0647 104.463L71.2649 105.379L64.8705 106.777L64.6703 105.861L67.3513 105.275L65.6878 97.6648L66.7203 97.4391L68.3837 105.049L71.0647 104.463Z" fill="#FFFBFB"/>
<path d="M56.469 98.792L56.0948 107.511L50.8666 107.287L50.9068 106.35L55.0791 106.529L55.2056 103.583L51.425 103.421L51.4652 102.484L55.2458 102.647L55.4131 98.7467L56.469 98.792Z" fill="#FFFBFB"/>
<path d="M35.5904 99.2794C35.8806 98.406 36.2892 97.7035 36.816 97.1721C37.3429 96.6406 37.9387 96.2938 38.6033 96.1315C39.2679 95.9691 39.9534 96.0053 40.6598 96.2401C41.3661 96.4748 41.9369 96.8561 42.3722 97.3839C42.8075 97.9118 43.0772 98.5462 43.1812 99.2873C43.2852 100.028 43.192 100.836 42.9018 101.709C42.6115 102.583 42.2029 103.285 41.6761 103.816C41.1492 104.348 40.5535 104.695 39.8888 104.857C39.2242 105.019 38.5387 104.983 37.8323 104.748C37.126 104.514 36.5552 104.132 36.1199 103.605C35.6846 103.077 35.4149 102.442 35.3109 101.701C35.2069 100.96 35.3001 100.153 35.5904 99.2794ZM36.5609 99.602C36.3226 100.319 36.2414 100.964 36.3174 101.537C36.3907 102.109 36.5888 102.59 36.9117 102.979C37.2318 103.366 37.6427 103.644 38.1441 103.81C38.6456 103.977 39.1419 104.001 39.6332 103.883C40.1218 103.764 40.5681 103.498 40.972 103.084C41.3732 102.67 41.6929 102.104 41.9312 101.387C42.1695 100.669 42.252 100.025 42.1787 99.4526C42.1028 98.8795 41.9047 98.3991 41.5845 98.0113C41.2616 97.6226 40.8495 97.3449 40.348 97.1783C39.8466 97.0116 39.3515 96.9878 38.8629 97.1069C38.3716 97.225 37.9254 97.4913 37.5242 97.9058C37.1203 98.3195 36.7992 98.8848 36.5609 99.602Z" fill="#FFFBFB"/>
<path d="M30.5129 91.8371L25.6658 99.0946L24.787 98.5076L29.1134 92.0298L25.7398 89.7766L26.2605 88.997L30.5129 91.8371Z" fill="#FFFBFB"/>
<path d="M14.3349 89.9991L20.5791 83.9019L21.3174 84.658L15.0733 90.7553L14.3349 89.9991Z" fill="#FFFBFB"/>
<path d="M8.09075 74.0511C8.88247 73.5816 9.65144 73.3189 10.3977 73.2628C11.1439 73.2067 11.8212 73.3352 12.4296 73.6482C13.0379 73.9612 13.532 74.4378 13.9116 75.078C14.2913 75.7182 14.4725 76.3803 14.4553 77.0643C14.4382 77.7483 14.226 78.4042 13.8189 79.032C13.4117 79.6599 12.8123 80.2086 12.0206 80.6781C11.2289 81.1476 10.4599 81.4104 9.71366 81.4664C8.96744 81.5225 8.29014 81.3941 7.68176 81.081C7.07337 80.768 6.57936 80.2914 6.19971 79.6512C5.82006 79.011 5.63882 78.3489 5.65599 77.6649C5.67316 76.981 5.88532 76.325 6.29246 75.6972C6.69961 75.0693 7.29904 74.5206 8.09075 74.0511ZM8.61241 74.9308C7.96242 75.3163 7.47832 75.7503 7.16011 76.233C6.84046 76.7132 6.67518 77.2059 6.66429 77.7111C6.65196 78.2138 6.78055 78.6924 7.05007 79.1469C7.31959 79.6014 7.6786 79.9451 8.12711 80.1778C8.57416 80.4082 9.08575 80.4995 9.66189 80.4518C10.2366 80.4016 10.8489 80.1838 11.4989 79.7984C12.1489 79.413 12.6337 78.9801 12.9534 78.4999C13.2716 78.0173 13.4369 77.5246 13.4492 77.0218C13.4601 76.5166 13.3308 76.0368 13.0612 75.5823C12.7917 75.1278 12.4334 74.7854 11.9864 74.555C11.5379 74.3223 11.0263 74.231 10.4516 74.2811C9.87546 74.3288 9.2624 74.5454 8.61241 74.9308Z" fill="#FFFBFB"/>
</svg>
